<svg width="37" height="37" viewBox="0 0 37 37" fill="none" xmlns="http://www.w3.org/2000/svg">
<path fill-rule="evenodd" clip-rule="evenodd" d="M12.0808 10.5708C12.0808 8.96873 12.7172 7.43233 13.85 6.29953C14.9828 5.16673 16.5192 4.53033 18.1212 4.53033C19.7232 4.53033 21.2596 5.16673 22.3924 6.29953C23.5252 7.43233 24.1616 8.96873 24.1616 10.5708C24.1616 12.1728 23.5252 13.7092 22.3924 14.842C21.2596 15.9748 19.7232 16.6112 18.1212 16.6112C16.5192 16.6112 14.9828 15.9748 13.85 14.842C12.7172 13.7092 12.0808 12.1728 12.0808 10.5708ZM12.0808 19.6314C10.0783 19.6314 8.15777 20.4269 6.74177 21.8429C5.32577 23.2589 4.53027 25.1794 4.53027 27.1819C4.53027 28.3834 5.00757 29.5357 5.85717 30.3853C6.70677 31.2349 7.85907 31.7122 9.06059 31.7122H27.1818C28.3834 31.7122 29.5357 31.2349 30.3853 30.3853C31.2349 29.5357 31.7122 28.3834 31.7122 27.1819C31.7122 25.1794 30.9167 23.2589 29.5007 21.8429C28.0847 20.4269 26.1642 19.6314 24.1616 19.6314H12.0808Z" fill="black"/>
</svg>
