<svg width="37" height="37" viewBox="0 0 37 37" fill="none" xmlns="http://www.w3.org/2000/svg">
<path d="M4.53061 4.53033H31.7125C32.113 4.53033 32.4971 4.68943 32.7803 4.97263C33.0635 5.25583 33.2226 5.63993 33.2226 6.04044V30.2021C33.2226 30.6026 33.0635 30.9867 32.7803 31.2699C32.4971 31.5531 32.113 31.7122 31.7125 31.7122H4.53061C4.13011 31.7122 3.74601 31.5531 3.46281 31.2699C3.17961 30.9867 3.02051 30.6026 3.02051 30.2021V6.04044C3.02051 5.63993 3.17961 5.25583 3.46281 4.97263C3.74601 4.68943 4.13011 4.53033 4.53061 4.53033ZM24.8642 23.461L30.2024 18.1213L24.8642 12.7815L22.7274 14.9199L25.9318 18.1213L22.7274 21.3242L24.8642 23.461ZM10.3113 18.1213L13.5157 14.9183L11.3804 12.7815L6.04072 18.1213L11.3804 23.461L13.5157 21.3227L10.3113 18.1213ZM16.9799 25.6718L22.4767 10.5708H19.2632L13.7664 25.6718H16.9799Z" fill="black"/>
</svg>
