<svg width="37" height="37" viewBox="0 0 37 37" fill="none" xmlns="http://www.w3.org/2000/svg">
<path d="M12.9263 23.7327C11.4366 22.243 10.6917 20.4416 10.6917 18.3287C10.6917 16.2158 11.4366 14.415 12.9263 12.9263C14.4161 11.4376 16.2169 10.6928 18.3287 10.6917C20.4406 10.6907 22.2419 11.4356 23.7327 12.9263C25.2234 14.4171 25.9678 16.2179 25.9657 18.3287C25.9637 20.4396 25.2188 22.2409 23.7312 23.7327C22.2435 25.2244 20.4427 25.9688 18.3287 25.9657C16.2148 25.9627 14.414 25.2178 12.9263 23.7312M7.63694 19.8561H1.52734V16.8013H7.63694V19.8561ZM35.1301 19.8561H29.0205V16.8013H35.1301V19.8561ZM16.8013 7.63694V1.52734H19.8561V7.63694H16.8013ZM16.8013 35.1301V29.0205H19.8561V35.1301H16.8013ZM9.7753 11.8373L5.91862 8.13335L8.09516 5.88043L11.7609 9.69893L9.7753 11.8373ZM28.5623 30.7771L24.8584 26.9204L26.8822 24.8202L30.7389 28.5241L28.5623 30.7771ZM24.8202 9.7753L28.5241 5.91862L30.7771 8.09516L26.9586 11.7609L24.8202 9.7753ZM5.88043 28.5623L9.73712 24.8584L11.8373 26.8822L8.13335 30.7389L5.88043 28.5623Z" fill="black"/>
</svg>
