<svg width="36" height="36" viewBox="0 0 36 36" fill="none" xmlns="http://www.w3.org/2000/svg">
<path d="M17.5317 30.6807C13.8549 30.6807 10.7445 29.4082 8.20038 26.8632C5.65631 24.3181 4.38379 21.2077 4.38281 17.5318C4.38281 14.1715 5.47856 11.2554 7.67004 8.78341C9.86153 6.31141 12.6618 4.86892 16.0707 4.45595C16.3873 4.40725 16.6673 4.45011 16.9108 4.58452C17.1543 4.71893 17.3491 4.89522 17.4952 5.1134C17.6413 5.33157 17.7207 5.58725 17.7333 5.88042C17.746 6.17359 17.6545 6.45361 17.4587 6.72049C17.0447 7.35358 16.734 8.0232 16.5266 8.72935C16.3191 9.4355 16.2159 10.1782 16.2168 10.9574C16.2168 13.1488 16.9839 15.0116 18.5179 16.5457C20.0519 18.0797 21.9147 18.8467 24.1062 18.8467C24.861 18.8467 25.61 18.7371 26.3532 18.518C27.0964 18.2988 27.7596 17.9945 28.3431 17.6049C28.6109 17.4344 28.8851 17.3555 29.1656 17.3682C29.4461 17.3809 29.6955 17.4476 29.9136 17.5683C30.1571 17.6901 30.3461 17.8727 30.4805 18.1162C30.6149 18.3597 30.6573 18.6519 30.6076 18.9928C30.2667 22.3531 28.8364 25.1412 26.3167 27.357C23.797 29.5728 20.8686 30.6807 17.5317 30.6807Z" fill="black"/>
</svg>
