<svg width="37" height="37" viewBox="0 0 37 37" fill="none" xmlns="http://www.w3.org/2000/svg">
<path d="M6.81886 29.5509C6.04368 29.5509 5.3803 29.2751 4.82875 28.7236C4.27719 28.172 4.00094 27.5082 4 26.732V9.81886C4 9.04368 4.27625 8.3803 4.82875 7.82875C5.38124 7.27719 6.04461 7.00094 6.81886 7H14.1127C14.4885 7 14.847 7.07047 15.1881 7.21141C15.5291 7.35236 15.8284 7.55203 16.0859 7.81042L18.0943 9.81886H29.3698C30.1449 9.81886 30.8088 10.0951 31.3613 10.6476C31.9138 11.2001 32.1896 11.8635 32.1886 12.6377V26.732C32.1886 27.5072 31.9128 28.1711 31.3613 28.7236C30.8097 29.2761 30.1459 29.5518 29.3698 29.5509H6.81886Z" fill="black"/>
</svg>
